# File generated by ImageToStl.com - Free Image and 3D model conversion tools

mtllib pawn.mtl

# Pawn_0
o obj1
v -0 112.23853016 23.39242954
v -2E-08 127.72745266 22.82697117
v -15.19016176 127.72745164 16.56021928
v -15.4704228 112.23852912 17.0100521
v -45.92836797 19.11940282 46.09137462
v -42.39046872 21.70799767 42.39204172
v -59.94983315 21.70799673 -3.54E-06
v -65.0498569 19.1193983 -3.11E-06
v -64.430511 6.5919809 -1.07E-06
v -45.62505186 6.59198316 45.86247992
v -48.10096323 42.16807941 46.28658502
v -44.78048384 26.13774374 44.78205911
v 0 26.13774676 63.33141497
v -1E-08 42.16808248 65.12370019
v -63.32983375 26.1377424 -4.26E-06
v -66.93809032 42.16807187 -6.84E-06
v 0 6.59198622 64.66795099
v 0 19.11940594 65.21286653
v -37.53783703 53.7969285 32.74700063
v -50.31707883 53.79692316 -8.76E-06
v 0 21.70800053 59.9514151
v -40.81335366 73.53385687 -1.198E-05
v -28.89330983 73.5338616 29.01439661
v -20.97013444 77.06396346 22.24637952
v -29.62144017 77.06395984 -1.258E-05
v -30.87307811 65.53504941 29.11656027
v -42.76213348 65.53504467 -1.068E-05
v 0 53.79693071 46.31125945
v -44.84579563 1.02270966 43.62721128
v 0 1.02271257 61.48754938
v 0 65.53505138 41.17704456
v 0 73.53386354 40.93443149
v -62.70613074 1.02270553 -1.7E-07
v -60.83658934 -0.22776355 4E-08
v -43.50090623 -0.22776301 42.36058298
v 0 -0.22776018 59.69626907
v 4E-08 77.06396487 30.89767929
v -0 93.41635523 25.46958295
v -16.95373356 93.41635409 18.47526399
v -21.85280323 112.23852634 -1.821E-05
v -21.45691961 127.72744894 -2.078E-05
v -23.948057 93.41635108 -1.513E-05
v 0 129.88476263 43.08980077
v -30.73852658 129.88476057 30.40852219
v 0 135.50676809 43.08979986
v -30.73852658 135.50676603 30.40852127
v -43.41981709 129.88475561 -2.116E-05
v 6E-08 143.22069109 25.65164617
v -16.74075574 143.22068997 18.74519041
v -43.41981709 135.50674915 -2.208E-05
v 1E-08 159.82524814 40.36178965
v -28.05433869 159.82524626 28.78787894
v -23.64721894 143.22068691 -2.326E-05
v 3.7E-07 216.74716936 28.42975304
v 3.1E-07 222.58265209 11.70212129
v -8.13383386 222.58265154 8.3464841
v -19.76073235 216.74716803 20.27740226
v -39.62826133 159.82524157 -2.574E-05
v 28.89330983 73.5338616 29.01439661
v 20.97013444 77.06396346 22.24637952
v -27.91309655 216.74716473 -3.538E-05
v -11.48947701 222.58265018 -3.624E-05
v 15.4704228 112.23852912 17.0100521
v 15.19016176 127.72745164 16.56021928
v 45.92836797 19.11940282 46.09137462
v 65.0498569 19.1193983 -3.11E-06
v 59.94983315 21.70799673 -3.54E-06
v 42.39046872 21.70799767 42.39204172
v 64.430511 6.5919809 -1.07E-06
v 45.62505186 6.59198316 45.86247992
v 48.10096323 42.16807941 46.28658502
v 44.78048384 26.13774374 44.78205911
v 63.32983375 26.1377424 -4.26E-06
v 66.93809032 42.16807187 -6.84E-06
v 50.31707883 53.79692316 -8.76E-06
v 37.53783703 53.7969285 32.74700063
v 40.81335366 73.53385687 -1.198E-05
v 29.62144017 77.06395984 -1.258E-05
v 42.76213348 65.53504467 -1.068E-05
v 30.87307811 65.53504941 29.11656027
v 44.84579563 1.02270966 43.62721128
v 62.70613074 1.02270553 -1.7E-07
v 43.50090623 -0.22776301 42.36058298
v 60.83658934 -0.22776355 4E-08
v 16.95373356 93.41635409 18.47526399
v 21.85280323 112.23852634 -1.821E-05
v 21.45691961 127.72744894 -2.078E-05
v 23.948057 93.41635108 -1.513E-05
v 30.73852658 129.88476057 30.40852219
v 30.73852658 135.50676603 30.40852127
v 43.41981709 129.88475561 -2.116E-05
v 16.74075574 143.22068997 18.74519041
v 43.41981709 135.50674915 -2.208E-05
v 28.05433869 159.82524626 28.78787894
v 23.64721894 143.22068691 -2.326E-05
v 19.76073235 216.74716803 20.27740226
v 8.1338346 222.58265154 8.3464841
v 39.62826133 159.82524157 -2.574E-05
v 4E-08 77.0639548 -30.8977044
v 0 73.5338502 -40.93445545
v -28.89330983 73.53385214 -29.01442057
v -20.97013444 77.06395621 -22.24640463
v 27.91310251 216.74716473 -3.538E-05
v 11.48947924 222.58265018 -3.624E-05
v -2E-08 127.72744522 -22.82701278
v -0 112.23852253 -23.39246612
v -15.4704228 112.23852357 -17.01008867
v -15.19016176 127.72744624 -16.5602609
v -45.92836797 19.11938781 -46.09138085
v -42.39046872 21.70798386 -42.3920488
v -45.62505186 6.59196822 -45.86248207
v -48.10096323 42.16806432 -46.28659876
v -1E-08 42.16806126 -65.12371393
v 0 26.13772612 -63.33142349
v -44.78048384 26.13772914 -44.78206762
v 0 19.11938469 -65.21287276
v 0 6.59196515 -64.66795313
v -37.53783703 53.79691783 -32.74701816
v 0 21.707981 -59.95142217
v -30.87307811 65.53503993 -29.11658163
v 0 53.79691562 -46.31127698
v -44.84579563 1.02269544 -43.62721162
v 0 1.02269253 -61.48754971
v 0 65.53503796 -41.17706592
v -43.50090623 -0.22777681 -42.36058291
v 0 -0.22777963 -59.696269
v -16.95373356 93.41634807 -18.47529443
v -0 93.41634693 -25.46961339
v -30.73852658 129.88475066 -30.40856451
v 0 129.88474859 -43.0898431
v -30.73852658 135.50675612 -30.40856543
v 0 135.50675405 -43.08984401
v 6E-08 143.22068273 -25.65169284
v -16.74075574 143.22068386 -18.74523708
v 1E-08 159.82523499 -40.36184173
v -28.05433869 159.82523688 -28.78793102
v 3.1E-07 222.58264828 -11.70219382
v 3.7E-07 216.74716009 -28.42982366
v -19.76073235 216.74716142 -20.27747288
v -8.13383386 222.58264882 -8.34655663
v 20.97013444 77.06395621 -22.24640463
v 28.89330983 73.53385214 -29.01442057
v 15.19016176 127.72744624 -16.5602609
v 15.4704228 112.23852357 -17.01008867
v 45.92836797 19.11938781 -46.09138085
v 42.39046872 21.70798386 -42.3920488
v 45.62505186 6.59196822 -45.86248207
v 48.10096323 42.16806432 -46.28659876
v 44.78048384 26.13772914 -44.78206762
v 37.53783703 53.79691783 -32.74701816
v 30.87307811 65.53503993 -29.11658163
v 44.84579563 1.02269544 -43.62721162
v 43.50090623 -0.22777681 -42.36058291
v 16.95373356 93.41634807 -18.47529443
v 30.73852658 129.88475066 -30.40856451
v 30.73852658 135.50675612 -30.40856543
v 16.74075574 143.22068386 -18.74523708
v 28.05433869 159.82523688 -28.78793102
v 8.1338346 222.58264882 -8.34655663
v 19.76073235 216.74716142 -20.27747288
v -31.61810338 176.65861182 32.44482381
v 7E-08 176.65861394 45.48897249
v 3.3E-07 194.14569877 45.28886493
v -31.47901595 194.14569666 32.30210062
v 44.66226995 176.65860653 -2.86E-05
v 31.61810338 176.65860124 -32.44488137
v 31.47901595 194.14568613 -32.30216388
v 44.46580708 194.14569139 -3.16E-05
v 7E-08 176.65859912 -45.48903006
v 3.3E-07 194.14568402 -45.28892819
v -44.66226995 176.65860653 -2.86E-05
v -44.46580708 194.14569139 -3.16E-05
v -31.47901595 194.14568613 -32.30216388
v -31.61810338 176.65860124 -32.44488137
v 31.47901595 194.14569666 32.30210062
v 31.61810338 176.65861182 32.44482381
v 2.4E-07 205.74925622 41.47356973
v -28.82711589 205.74925428 29.58085761
v 28.82711589 205.74924464 -29.58092465
v 40.71985781 205.74924946 -3.353E-05
v 2.4E-07 205.7492427 -41.47363677
v -40.71985483 205.74924946 -3.353E-05
v -28.82711589 205.74924464 -29.58092465
v 28.82711589 205.74925428 29.58085761
vn -0.38116 -0.9239 0.03373
vn -0.4458 -0.18481 0.87585
vn -0.9238 -0.38103 -0.0375
vn -0.37009 -0.91944 -0.13288
vn -0.9039 -0.37108 -0.21276
vn -0.38251 -0.92336 -0.03315
vn -0.5657 -0.2263 0.79295
vn -0.18159 -0.43722 0.88083
vn -0.30539 -0.12256 0.94431
vn -0.78949 -0.31481 0.52688
vn -0.19981 -0.5281 0.82534
vn -0.33903 -0.83653 -0.43045
vn -0.90191 -0.3694 0.22384
vn -0.31997 -0.85423 0.40976
vn -0.37157 -0.92606 0.06594
vn -0.5427 -0.22213 -0.81002
vn -0.75511 -0.31278 -0.57617
vn -0.22189 -0.55698 -0.80034
vn -0.31279 -0.75511 -0.57617
vn -0.89012 -0.3647 -0.27326
vn -0.36459 -0.88375 0.29336
vn -0.93547 -0.35248 0.02554
vn -0.8896 -0.34179 0.30298
vn -0.3794 -0.91965 0.10149
vn -0.93083 -0.35089 0.10214
vn -0.04363 -0.10577 -0.99343
vn -0.38137 -0.92442 0
vn -0.09953 -0.04015 -0.99422
vn -0.16462 -0.39903 0.90204
vn -0.92296 -0.3849 0
vn -0.29505 -0.71519 -0.6336
vn -0.36861 -0.14689 0.91791
vn -0.13465 -0.32639 0.9356
vn -0.70121 -0.27262 -0.65877
vn 0.13562 -0.32873 0.93464
vn -0.33181 -0.1334 0.93387
vn 0.38116 -0.9239 0.03373
vn 0.4458 -0.18481 0.87585
vn 0.9238 -0.38103 -0.0375
vn 0.37009 -0.91944 -0.13288
vn 0.9039 -0.37108 -0.21276
vn 0.38251 -0.92336 -0.03315
vn 0.5657 -0.2263 0.79295
vn 0.18159 -0.43722 0.88083
vn 0.30539 -0.12256 0.94431
vn 0.78949 -0.31481 0.52688
vn 0.19981 -0.5281 0.82534
vn 0.33903 -0.83653 -0.43045
vn 0.90191 -0.3694 0.22384
vn 0.31997 -0.85423 0.40976
vn 0.37157 -0.92606 0.06594
vn 0.5427 -0.22213 -0.81002
vn 0.75511 -0.31278 -0.57617
vn 0.22189 -0.55698 -0.80034
vn 0.31279 -0.75511 -0.57617
vn 0.89012 -0.3647 -0.27326
vn 0.36459 -0.88375 0.29336
vn 0.93547 -0.35248 0.02554
vn 0.8896 -0.34179 0.30298
vn 0.3794 -0.91965 0.10149
vn 0.93083 -0.35089 0.10214
vn 0.04363 -0.10577 -0.99343
vn 0.38137 -0.92442 0
vn 0.09953 -0.04015 -0.99422
vn 0.16462 -0.39903 0.90204
vn 0.92296 -0.3849 0
vn 0.29505 -0.71519 -0.6336
vn 0.36861 -0.14689 0.91791
vn 0.13465 -0.32639 0.9356
vn 0.70121 -0.27262 -0.65877
vn -0.13562 0.32873 0.93464
vn 0.33181 -0.1334 0.93387
vn -0.38116 0.9239 0.03373
vn -0.4458 0.18481 0.87585
vn -0.9238 0.38103 -0.0375
vn -0.37009 0.91944 -0.13288
vn -0.9039 0.37108 -0.21276
vn -0.38251 0.92336 -0.03315
vn -0.5657 0.2263 0.79295
vn -0.18159 0.43722 0.88083
vn -0.30539 0.12256 0.94431
vn -0.78949 0.31481 0.52688
vn -0.19981 0.5281 0.82534
vn -0.33903 0.83653 -0.43045
vn -0.90191 0.3694 0.22384
vn -0.31997 0.85423 0.40976
vn -0.37157 0.92606 0.06594
vn -0.5427 0.22213 -0.81002
vn -0.75511 0.31278 -0.57617
vn -0.22189 0.55698 -0.80034
vn -0.31279 0.75511 -0.57617
vn -0.89012 0.3647 -0.27326
vn -0.36459 0.88375 0.29336
vn -0.93547 0.35248 0.02554
vn -0.8896 0.34179 0.30298
vn -0.3794 0.91965 0.10149
vn -0.93083 0.35089 0.10214
vn -0.04363 0.10577 -0.99343
vn -0.38137 0.92442 0
vn -0.09953 0.04015 -0.99422
vn -0.16462 0.39903 0.90204
vn -0.92296 0.3849 0
vn -0.29505 0.71519 -0.6336
vn -0.36861 0.14689 0.91791
vn -0.13465 0.32639 0.9356
vn -0.70121 0.27262 -0.65877
vn 0.13562 0.32873 0.93464
vn -0.33181 0.1334 0.93387
vn 0.38116 0.9239 0.03373
vn 0.4458 0.18481 0.87585
vn 0.9238 0.38103 -0.0375
vn 0.37009 0.91944 -0.13288
vn 0.9039 0.37108 -0.21276
vn 0.38251 0.92336 -0.03315
vn 0.5657 0.2263 0.79295
vn 0.18159 0.43722 0.88083
vn 0.30539 0.12256 0.94431
vn 0.78949 0.31481 0.52688
vn 0.19981 0.5281 0.82534
vn 0.33903 0.83653 -0.43045
vn 0.90191 0.3694 0.22384
vn 0.31997 0.85423 0.40976
vn 0.37157 0.92606 0.06594
vn 0.5427 0.22213 -0.81002
vn 0.75511 0.31278 -0.57617
vn 0.22189 0.55698 -0.80034
vn 0.31279 0.75511 -0.57617
vn 0.89012 0.3647 -0.27326
vn 0.36459 0.88375 0.29336
vn 0.93547 0.35248 0.02554
vn 0.8896 0.34179 0.30298
vn 0.3794 0.91965 0.10149
vn 0.93083 0.35089 0.10214
vn 0.04363 0.10577 -0.99343
vn 0.38137 0.92442 0
vn 0.09953 0.04015 -0.99422
vn 0.16462 0.39903 0.90204
vn 0.92296 0.3849 0
vn 0.29505 0.71519 -0.6336
vn 0.36861 0.14689 0.91791
vn 0.13465 0.32639 0.9356
vn 0.70121 0.27262 -0.65877
vn -0.38135 -0.92437 0.01058
vn 0.33181 0.1334 0.93387
vn -0.3671 -0.88982 -0.27103
vn 0.92777 0.373 0.01042
vn 0.38135 0.92437 0.01058
vn -0.92777 0.373 0.01042
vn -0.38135 0.92437 0.01058
vn 0.92777 -0.373 0.01042
vn 0.38135 -0.92437 0.01058
vn -0.92777 -0.373 0.01042
vn 0.3671 -0.88982 -0.27103
vn -0.89405 -0.35944 -0.26736
vn -0.3671 0.88982 -0.27103
vn 0.89405 -0.35944 -0.26736
vn 0.3671 0.88982 -0.27103
vn -0.89405 0.35944 -0.26736
vn -0.36489 -0.88447 0.29082
vn 0.89405 0.35944 -0.26736
vn -0.257 -0.62295 0.73884
vn 0.88881 0.35734 0.28693
vn 0.36489 0.88447 0.29082
vn -0.88881 0.35734 0.28693
vn -0.36489 0.88447 0.29082
vn 0.88881 -0.35734 0.28693
vn 0.36489 -0.88447 0.29082
vn -0.88881 -0.35734 0.28693
vn 0.63024 0.25338 0.73389
vn 0.257 0.62295 0.73884
vn -0.63024 0.25338 0.73389
vn -0.257 0.62295 0.73884
vn 0.63024 -0.25338 0.73389
vn 0.257 -0.62295 0.73884
vn -0.63024 -0.25338 0.73389
vn 0 0 1
vn -0.13562 -0.32873 0.93464
usemtl mat0
f 1//1 2//1 3//1
f 1//1 3//1 4//1
f 5//2 6//2 7//2
f 5//2 7//2 8//2
f 9//3 10//3 5//3
f 9//3 5//3 8//3
f 11//4 12//4 13//4
f 11//4 13//4 14//4
f 15//5 12//5 11//5
f 15//5 11//5 16//5
f 10//6 17//6 18//6
f 10//6 18//6 5//6
f 11//7 19//7 20//7
f 11//7 20//7 16//7
f 5//8 18//8 21//8
f 5//8 21//8 6//8
f 22//9 23//9 24//9
f 22//9 24//9 25//9
f 19//10 26//10 27//10
f 19//10 27//10 20//10
f 14//11 28//11 19//11
f 14//11 19//11 11//11
f 29//12 30//12 17//12
f 29//12 17//12 10//12
f 26//13 23//13 22//13
f 26//13 22//13 27//13
f 28//14 31//14 26//14
f 28//14 26//14 19//14
f 31//15 32//15 23//15
f 31//15 23//15 26//15
f 33//16 34//16 35//16
f 33//16 35//16 29//16
f 7//17 6//17 12//17
f 7//17 12//17 15//17
f 29//18 35//18 36//18
f 29//18 36//18 30//18
f 6//19 21//19 13//19
f 6//19 13//19 12//19
f 33//20 29//20 10//20
f 33//20 10//20 9//20
f 24//21 37//21 38//21
f 24//21 38//21 39//21
f 40//22 4//22 3//22
f 40//22 3//22 41//22
f 25//23 24//23 39//23
f 25//23 39//23 42//23
f 39//24 38//24 1//24
f 39//24 1//24 4//24
f 42//25 39//25 4//25
f 42//25 4//25 40//25
f 3//26 2//26 43//26
f 3//26 43//26 44//26
f 44//27 43//27 45//27
f 44//27 45//27 46//27
f 41//28 3//28 44//28
f 41//28 44//28 47//28
f 45//29 48//29 49//29
f 45//29 49//29 46//29
f 47//30 44//30 46//30
f 47//30 46//30 50//30
f 48//31 51//31 52//31
f 48//31 52//31 49//31
f 50//32 46//32 49//32
f 50//32 49//32 53//32
f 54//33 55//33 56//33
f 54//33 56//33 57//33
f 53//34 49//34 52//34
f 53//34 52//34 58//34
f 37//35 32//35 59//35
f 37//35 59//35 60//35
f 61//36 57//36 56//36
f 61//36 56//36 62//36
f 2//37 1//37 63//37
f 2//37 63//37 64//37
f 65//38 66//38 67//38
f 65//38 67//38 68//38
f 69//39 66//39 65//39
f 69//39 65//39 70//39
f 71//40 14//40 13//40
f 71//40 13//40 72//40
f 73//41 74//41 71//41
f 73//41 71//41 72//41
f 70//42 65//42 18//42
f 70//42 18//42 17//42
f 71//43 74//43 75//43
f 71//43 75//43 76//43
f 65//44 68//44 21//44
f 65//44 21//44 18//44
f 77//45 78//45 60//45
f 77//45 60//45 59//45
f 76//46 75//46 79//46
f 76//46 79//46 80//46
f 14//47 71//47 76//47
f 14//47 76//47 28//47
f 81//48 70//48 17//48
f 81//48 17//48 30//48
f 80//49 79//49 77//49
f 80//49 77//49 59//49
f 28//50 76//50 80//50
f 28//50 80//50 31//50
f 31//51 80//51 59//51
f 31//51 59//51 32//51
f 82//52 81//52 83//52
f 82//52 83//52 84//52
f 67//53 73//53 72//53
f 67//53 72//53 68//53
f 81//54 30//54 36//54
f 81//54 36//54 83//54
f 68//55 72//55 13//55
f 68//55 13//55 21//55
f 82//56 69//56 70//56
f 82//56 70//56 81//56
f 60//57 85//57 38//57
f 60//57 38//57 37//57
f 86//58 87//58 64//58
f 86//58 64//58 63//58
f 78//59 88//59 85//59
f 78//59 85//59 60//59
f 85//60 63//60 1//60
f 85//60 1//60 38//60
f 88//61 86//61 63//61
f 88//61 63//61 85//61
f 64//62 89//62 43//62
f 64//62 43//62 2//62
f 89//63 90//63 45//63
f 89//63 45//63 43//63
f 87//64 91//64 89//64
f 87//64 89//64 64//64
f 48//65 45//65 90//65
f 48//65 90//65 92//65
f 91//66 93//66 90//66
f 91//66 90//66 89//66
f 51//67 48//67 92//67
f 51//67 92//67 94//67
f 93//68 95//68 92//68
f 93//68 92//68 90//68
f 55//69 54//69 96//69
f 55//69 96//69 97//69
f 95//70 98//70 94//70
f 95//70 94//70 92//70
f 99//71 100//71 101//71
f 99//71 101//71 102//71
f 103//72 104//72 97//72
f 103//72 97//72 96//72
f 105//73 106//73 107//73
f 105//73 107//73 108//73
f 109//74 8//74 7//74
f 109//74 7//74 110//74
f 9//75 8//75 109//75
f 9//75 109//75 111//75
f 112//76 113//76 114//76
f 112//76 114//76 115//76
f 15//77 16//77 112//77
f 15//77 112//77 115//77
f 111//78 109//78 116//78
f 111//78 116//78 117//78
f 112//79 16//79 20//79
f 112//79 20//79 118//79
f 109//80 110//80 119//80
f 109//80 119//80 116//80
f 22//81 25//81 102//81
f 22//81 102//81 101//81
f 118//82 20//82 27//82
f 118//82 27//82 120//82
f 113//83 112//83 118//83
f 113//83 118//83 121//83
f 122//84 111//84 117//84
f 122//84 117//84 123//84
f 120//85 27//85 22//85
f 120//85 22//85 101//85
f 121//86 118//86 120//86
f 121//86 120//86 124//86
f 124//87 120//87 101//87
f 124//87 101//87 100//87
f 33//88 122//88 125//88
f 33//88 125//88 34//88
f 7//89 15//89 115//89
f 7//89 115//89 110//89
f 122//90 123//90 126//90
f 122//90 126//90 125//90
f 110//91 115//91 114//91
f 110//91 114//91 119//91
f 33//92 9//92 111//92
f 33//92 111//92 122//92
f 102//93 127//93 128//93
f 102//93 128//93 99//93
f 40//94 41//94 108//94
f 40//94 108//94 107//94
f 25//95 42//95 127//95
f 25//95 127//95 102//95
f 127//96 107//96 106//96
f 127//96 106//96 128//96
f 42//97 40//97 107//97
f 42//97 107//97 127//97
f 108//98 129//98 130//98
f 108//98 130//98 105//98
f 129//99 131//99 132//99
f 129//99 132//99 130//99
f 41//100 47//100 129//100
f 41//100 129//100 108//100
f 133//101 132//101 131//101
f 133//101 131//101 134//101
f 47//102 50//102 131//102
f 47//102 131//102 129//102
f 135//103 133//103 134//103
f 135//103 134//103 136//103
f 50//104 53//104 134//104
f 50//104 134//104 131//104
f 137//105 138//105 139//105
f 137//105 139//105 140//105
f 53//106 58//106 136//106
f 53//106 136//106 134//106
f 100//107 99//107 141//107
f 100//107 141//107 142//107
f 61//108 62//108 140//108
f 61//108 140//108 139//108
f 106//109 105//109 143//109
f 106//109 143//109 144//109
f 145//110 146//110 67//110
f 145//110 67//110 66//110
f 69//111 147//111 145//111
f 69//111 145//111 66//111
f 148//112 149//112 114//112
f 148//112 114//112 113//112
f 73//113 149//113 148//113
f 73//113 148//113 74//113
f 147//114 117//114 116//114
f 147//114 116//114 145//114
f 148//115 150//115 75//115
f 148//115 75//115 74//115
f 145//116 116//116 119//116
f 145//116 119//116 146//116
f 77//117 142//117 141//117
f 77//117 141//117 78//117
f 150//118 151//118 79//118
f 150//118 79//118 75//118
f 113//119 121//119 150//119
f 113//119 150//119 148//119
f 152//120 123//120 117//120
f 152//120 117//120 147//120
f 151//121 142//121 77//121
f 151//121 77//121 79//121
f 121//122 124//122 151//122
f 121//122 151//122 150//122
f 124//123 100//123 142//123
f 124//123 142//123 151//123
f 82//124 84//124 153//124
f 82//124 153//124 152//124
f 67//125 146//125 149//125
f 67//125 149//125 73//125
f 152//126 153//126 126//126
f 152//126 126//126 123//126
f 146//127 119//127 114//127
f 146//127 114//127 149//127
f 82//128 152//128 147//128
f 82//128 147//128 69//128
f 141//129 99//129 128//129
f 141//129 128//129 154//129
f 86//130 144//130 143//130
f 86//130 143//130 87//130
f 78//131 141//131 154//131
f 78//131 154//131 88//131
f 154//132 128//132 106//132
f 154//132 106//132 144//132
f 88//133 154//133 144//133
f 88//133 144//133 86//133
f 143//134 105//134 130//134
f 143//134 130//134 155//134
f 155//135 130//135 132//135
f 155//135 132//135 156//135
f 87//136 143//136 155//136
f 87//136 155//136 91//136
f 132//137 133//137 157//137
f 132//137 157//137 156//137
f 91//138 155//138 156//138
f 91//138 156//138 93//138
f 133//139 135//139 158//139
f 133//139 158//139 157//139
f 93//140 156//140 157//140
f 93//140 157//140 95//140
f 138//141 137//141 159//141
f 138//141 159//141 160//141
f 95//142 157//142 158//142
f 95//142 158//142 98//142
f 161//143 162//143 163//143
f 161//143 163//143 164//143
f 103//144 160//144 159//144
f 103//144 159//144 104//144
f 51//145 162//145 161//145
f 51//145 161//145 52//145
f 165//146 166//146 167//146
f 165//146 167//146 168//146
f 166//147 169//147 170//147
f 166//147 170//147 167//147
f 171//148 172//148 173//148
f 171//148 173//148 174//148
f 174//149 173//149 170//149
f 174//149 170//149 169//149
f 165//150 168//150 175//150
f 165//150 175//150 176//150
f 176//151 175//151 163//151
f 176//151 163//151 162//151
f 171//152 161//152 164//152
f 171//152 164//152 172//152
f 176//153 162//153 51//153
f 176//153 51//153 94//153
f 58//154 52//154 161//154
f 58//154 161//154 171//154
f 174//155 169//155 135//155
f 174//155 135//155 136//155
f 98//156 165//156 176//156
f 98//156 176//156 94//156
f 135//157 169//157 166//157
f 135//157 166//157 158//157
f 58//158 171//158 174//158
f 58//158 174//158 136//158
f 164//159 163//159 177//159
f 164//159 177//159 178//159
f 98//160 158//160 166//160
f 98//160 166//160 165//160
f 178//161 177//161 54//161
f 178//161 54//161 57//161
f 168//162 167//162 179//162
f 168//162 179//162 180//162
f 167//163 170//163 181//163
f 167//163 181//163 179//163
f 172//164 182//164 183//164
f 172//164 183//164 173//164
f 173//165 183//165 181//165
f 173//165 181//165 170//165
f 168//166 180//166 184//166
f 168//166 184//166 175//166
f 175//167 184//167 177//167
f 175//167 177//167 163//167
f 172//168 164//168 178//168
f 172//168 178//168 182//168
f 180//169 179//169 160//169
f 180//169 160//169 103//169
f 179//170 181//170 138//170
f 179//170 138//170 160//170
f 182//171 61//171 139//171
f 182//171 139//171 183//171
f 183//172 139//172 138//172
f 183//172 138//172 181//172
f 180//173 103//173 96//173
f 180//173 96//173 184//173
f 184//174 96//174 54//174
f 184//174 54//174 177//174
f 182//175 178//175 57//175
f 182//175 57//175 61//175
f 55//176 97//176 104//176
f 55//176 104//176 159//176
f 55//176 159//176 137//176
f 55//176 137//176 140//176
f 55//176 140//176 62//176
f 55//176 62//176 56//176
f 32//177 37//177 24//177
f 32//177 24//177 23//177
# Vertices: 184, normals: 177, texture coordinates: 0, faces: 358

